<svg xmlns="http://www.w3.org/2000/svg" enable-background="new 0 0 64 64" viewBox="0 0 64 64" id="contacts">
  <g>
    <path d="M35.75 11.92l-.08-.04L35.1 11.7c-.09-.02-.15-.11-.15-.2v-.84c.72-.83 1.09-1.94 1.11-3.21 1.64-3 1.46-5.21-.52-6.57-.68-.46-1.51-.75-2.41-.83C32.8.01 32.49 0 32.19 0c-1.48 0-2.6.37-3.34 1.1-.13.13-.24.26-.33.4-.92.43-1.5 1.05-1.72 1.87-.42 1.53.54 3.15 1.01 3.84-.09 1.3.24 2.46.95 3.37v.92c0 .09-.06.18-.15.2l-.64.21c-1.87.64-3.13 2.39-3.13 4.35v.44c0 .83.69 1.52 1.53 1.52h10.95c.83 0 1.52-.69 1.52-1.52v-.44C38.86 14.29 37.6 12.54 35.75 11.92zM31.86 13.48c-.67 0-1.32-.22-2.01-.66.28-.27.46-.62.53-1 .24.11.46.18.68.23.25.05.51.07.77.07.27 0 .56-.03.83-.08.22-.05.45-.12.69-.22.06.39.25.74.52 1C33.18 13.26 32.52 13.48 31.86 13.48zM33.76 9.55c-.15.08-.27.2-.37.35-.04.04-.08.08-.13.11-.28.2-.6.35-.93.41-.18.04-.35.06-.51.06-.15 0-.3-.02-.45-.05-.3-.06-.59-.2-.87-.42-1.05-.83-1.13-2.06-1.02-2.94.1-.71.36-1.45.72-2.06h3.11c.24 0 .46.06.63.16.19.12.31.28.39.52.02.05.03.1.04.16C34.62 7.52 34.4 8.79 33.76 9.55zM35.75 34.8l-.09-.04-.56-.17c-.09-.03-.15-.11-.15-.2v-.84c.72-.83 1.09-1.95 1.11-3.22 1.64-3 1.46-5.21-.52-6.56-.69-.47-1.52-.76-2.41-.83-.33-.03-.65-.05-.94-.05-1.48 0-2.6.38-3.34 1.1-.13.13-.24.27-.33.4-.92.43-1.5 1.05-1.72 1.88-.42 1.52.54 3.15 1.01 3.84-.09 1.29.24 2.45.95 3.36v.93c0 .09-.06.17-.15.2l-.64.2c-1.87.64-3.13 2.39-3.13 4.35v.44c0 .84.69 1.53 1.53 1.53h10.95c.83 0 1.52-.69 1.52-1.53v-.44C38.86 37.18 37.6 35.43 35.75 34.8zM31.86 36.36c-.67 0-1.32-.22-2.01-.65.28-.28.46-.63.53-1 .24.1.46.17.68.22C31.3 34.98 31.56 35 31.82 35c.27 0 .56-.02.83-.08.22-.05.45-.12.69-.22.06.39.25.74.52 1.01C33.18 36.14 32.52 36.36 31.86 36.36zM33.75 32.44c-.14.08-.26.2-.36.35-.05.04-.09.08-.13.11-.28.21-.6.35-.93.42-.18.03-.35.05-.51.05-.15 0-.3-.01-.45-.04-.3-.06-.59-.21-.87-.43-1.04-.83-1.13-2.05-1.02-2.94.1-.71.36-1.44.72-2.05h3.11c.24 0 .46.05.63.16.19.12.31.28.39.51.02.05.03.11.04.16C34.62 30.41 34.4 31.67 33.75 32.44zM35.75 57.69l-.09-.03-.56-.18c-.09-.03-.15-.11-.15-.2v-.84c.72-.83 1.09-1.95 1.11-3.22 1.64-2.99 1.46-5.2-.52-6.56-.68-.47-1.52-.76-2.41-.83-.33-.03-.65-.04-.94-.04-1.48 0-2.6.37-3.34 1.09-.13.13-.24.27-.33.41-.92.42-1.5 1.05-1.72 1.87-.42 1.53.54 3.15 1.01 3.84-.09 1.3.24 2.45.95 3.36v.93c0 .09-.06.17-.15.2l-.64.21c-1.87.63-3.13 2.38-3.13 4.35v.44c0 .83.69 1.52 1.53 1.52h10.95c.83 0 1.52-.69 1.52-1.52v-.44C38.86 60.06 37.6 58.32 35.75 57.69zM31.86 59.25c-.67 0-1.32-.21-2.01-.65.28-.27.46-.63.53-1 .24.1.46.18.68.22.25.05.51.08.77.08.27 0 .55-.03.83-.09.22-.04.45-.11.69-.21.06.38.25.74.52 1C33.18 59.04 32.52 59.25 31.86 59.25zM33.75 55.33c-.14.08-.26.19-.36.35-.04.03-.09.07-.13.11-.28.2-.6.34-.93.41-.18.04-.35.05-.51.05-.15 0-.3-.01-.45-.04-.3-.06-.59-.21-.87-.43-1.04-.83-1.13-2.05-1.02-2.93.1-.71.36-1.45.72-2.06h3.11c.24 0 .46.06.63.16.19.12.31.28.39.52.02.05.03.1.04.16C34.62 53.3 34.4 54.56 33.75 55.33zM17.44 0H6.76C4.68 0 2.99 1.69 2.99 3.78v10.67c0 2.08 1.69 3.77 3.77 3.77h10.68c2.08 0 3.77-1.69 3.77-3.77V3.78C21.21 1.69 19.52 0 17.44 0zM17.82 13.87l-.46.46c-.3.31-.65.54-1.03.7-.42.16-.8.23-1.17.23s-.77-.07-1.13-.21c-3.05-1.15-5.58-3.34-7.51-6.5C5.56 7 5.8 5.02 7.1 3.72l.33-.33c.26-.26.65-.42 1.03-.42.4 0 .78.16 1.04.43l1.87 1.86c.57.58.58 1.5.01 2.08l-.68.69c.65.97 1.5 1.85 2.52 2.58l.65-.66c.29-.28.67-.44 1.07-.44s.79.16 1.07.44l1.79 1.79C18.4 12.32 18.4 13.29 17.82 13.87zM17.44 22.89H6.76c-2.08 0-3.77 1.7-3.77 3.78v10.67c0 2.08 1.69 3.78 3.77 3.78h10.68c2.08 0 3.77-1.7 3.77-3.78V26.66C21.21 24.59 19.52 22.89 17.44 22.89zM17.82 36.77l-.46.45c-.31.31-.66.54-1.03.7-.44.17-.8.24-1.16.24-.39 0-.78-.08-1.14-.22-3.05-1.15-5.58-3.34-7.51-6.5-.94-1.54-.71-3.53.6-4.82l.33-.33c.26-.27.65-.42 1.03-.42.4 0 .78.15 1.04.42l1.87 1.87c.57.57.58 1.5.01 2.07l-.68.69c.65.98 1.5 1.85 2.52 2.58l.65-.65c.29-.29.67-.45 1.07-.45s.79.16 1.07.45l1.79 1.78C18.4 35.22 18.4 36.17 17.82 36.77zM17.44 45.78H6.76c-2.08 0-3.77 1.69-3.77 3.77v10.67c0 2.09 1.69 3.78 3.77 3.78h10.68c2.08 0 3.77-1.69 3.77-3.78V49.55C21.21 47.47 19.52 45.78 17.44 45.78zM17.82 59.66l-.46.46c-.31.3-.66.54-1.03.7-.44.16-.8.23-1.16.23-.39 0-.78-.07-1.14-.21-3.05-1.15-5.58-3.34-7.51-6.51-.94-1.54-.71-3.53.6-4.82l.33-.33c.26-.27.65-.42 1.03-.42.4 0 .78.15 1.04.42l1.87 1.87c.57.57.58 1.5.01 2.08l-.68.69c.65.97 1.5 1.84 2.52 2.57l.65-.65c.29-.29.67-.45 1.07-.45s.79.16 1.07.45l1.79 1.78C18.4 58.11 18.4 59.07 17.82 59.66zM43.55 11.59h16.14c.73 0 1.32-.59 1.32-1.32s-.59-1.32-1.32-1.32H43.55c-.73 0-1.32.59-1.32 1.32S42.82 11.59 43.55 11.59zM59.69 31.84H43.55c-.73 0-1.32.59-1.32 1.32 0 .73.59 1.32 1.32 1.32h16.14c.73 0 1.32-.59 1.32-1.32C61.01 32.44 60.42 31.84 59.69 31.84zM59.69 54.73H43.55c-.73 0-1.32.59-1.32 1.32 0 .73.59 1.32 1.32 1.32h16.14c.73 0 1.32-.59 1.32-1.32C61.01 55.33 60.42 54.73 59.69 54.73z"></path>
  </g>
</svg>
