<svg xmlns="http://www.w3.org/2000/svg" viewBox="0 0 64 64" id="organization">
  <g>
    <path d="M55.07 53.13a6.882 6.882 0 0 0-1.29-.13h-.16l-.26.52 1.2.9zM47 44a4 4 0 0 0 8 0v-3a8.622 8.622 0 0 0-3.61.92A10.362 10.362 0 0 1 47 43zm0-3a8.622 8.622 0 0 0 3.61-.92 10.664 10.664 0 0 1 4.25-1.07A3.991 3.991 0 0 0 47 40zm3 8.91v1.85l1 2 1-2v-1.85a5.6 5.6 0 0 1-2 0zm-1.36 3.61-.26-.52h-.16a6.882 6.882 0 0 0-1.29.13l.51 1.29z"></path>
    <path d="M42 60h18v-1.6a5.036 5.036 0 0 0-2.43-4.29L57.4 54c-.14-.08-.29-.14-.44-.22l-1.03 2.59a1 1 0 0 1-.66.59.842.842 0 0 1-.27.04 1.029 1.029 0 0 1-.6-.2l-1.95-1.46-.56 1.11a1 1 0 0 1-1.78 0l-.56-1.11-1.95 1.46a1.029 1.029 0 0 1-.6.2.842.842 0 0 1-.27-.04 1 1 0 0 1-.66-.59l-1.03-2.59a3.356 3.356 0 0 0-.42.22l-.21.11A5.062 5.062 0 0 0 42 58.4zm13.07-38.87a6.882 6.882 0 0 0-1.29-.13h-.16l-.26.52 1.2.9zM47 12a4 4 0 0 0 8 0V9a8.622 8.622 0 0 0-3.61.92A10.362 10.362 0 0 1 47 11zm0-3a8.622 8.622 0 0 0 3.61-.92 10.664 10.664 0 0 1 4.25-1.07A3.991 3.991 0 0 0 47 8zm3 8.91v1.85l1 2 1-2v-1.85a5.6 5.6 0 0 1-2 0z"></path>
    <path d="M42 28h18v-1.6a5.036 5.036 0 0 0-2.43-4.29L57.4 22c-.14-.08-.29-.14-.44-.22l-1.03 2.59a1 1 0 0 1-.66.59.842.842 0 0 1-.27.04 1.029 1.029 0 0 1-.6-.2l-1.95-1.46-.56 1.11a1 1 0 0 1-1.78 0l-.56-1.11-1.95 1.46a1.029 1.029 0 0 1-.6.2.842.842 0 0 1-.27-.04 1 1 0 0 1-.66-.59l-1.03-2.59a3.356 3.356 0 0 0-.42.22l-.21.11A5.062 5.062 0 0 0 42 26.4Z"></path>
    <path d="m48.64 21.52-.26-.52h-.16a6.882 6.882 0 0 0-1.29.13l.51 1.29Z"></path>
    <circle cx="14" cy="32" r="4"></circle>
    <path d="M9.074 39.032a1.007 1.007 0 0 1 1.04-.042 7.951 7.951 0 0 0 1.69.7 1 1 0 0 1 .706.765L12.82 42h2.36l.31-1.548a1 1 0 0 1 .706-.765 7.951 7.951 0 0 0 1.69-.7 1.007 1.007 0 0 1 1.04.042l1.31.873 1.67-1.669-.874-1.31a1 1 0 0 1-.041-1.042 7.946 7.946 0 0 0 .7-1.688 1 1 0 0 1 .765-.706L24 33.181v-2.362l-1.548-.309a1 1 0 0 1-.765-.706 7.946 7.946 0 0 0-.7-1.688 1 1 0 0 1 .041-1.042l.874-1.31-1.666-1.664-1.31.873a1 1 0 0 1-1.04.042 7.951 7.951 0 0 0-1.69-.7 1 1 0 0 1-.706-.765L15.18 22h-2.36l-.31 1.548a1 1 0 0 1-.706.765 7.951 7.951 0 0 0-1.69.7 1 1 0 0 1-1.04-.042l-1.31-.871-1.67 1.669.874 1.31a1 1 0 0 1 .041 1.042 7.946 7.946 0 0 0-.7 1.688 1 1 0 0 1-.765.706L4 30.819v2.362l1.548.309a1 1 0 0 1 .765.706 7.946 7.946 0 0 0 .7 1.688 1 1 0 0 1-.041 1.042l-.874 1.31 1.67 1.669zM14 26a6 6 0 1 1-6 6 6.006 6.006 0 0 1 6-6zm18-10v15h-4v2h4v15a1 1 0 0 0 1 1h6v-2h-5V17h5v-2h-6a1 1 0 0 0-1 1zm13 25v4a2 2 0 0 1-2-2 2 2 0 0 1 2-2zM57 45v-4a2 2 0 0 1 2 2 2 2 0 0 1-2 2ZM45 9v4a2 2 0 0 1-2-2 2 2 0 0 1 2-2ZM57 13V9a2 2 0 0 1 2 2 2 2 0 0 1-2 2Z"></path>
  </g>
</svg>
