<?xml version="1.0" encoding="UTF-8"?>
<svg id="Camada_1" xmlns="http://www.w3.org/2000/svg" viewBox="0 0 226.15 60.26">
  <defs>
    <style>
      .cls-1 {
        fill: #fff;
      }
    </style>
  </defs>
  <g>
    <path class="cls-1" d="M47.61,3.48l-1.74,9.89c-.16.87-.79,1.5-1.66,1.5h-.16c-3.16-.24-12.1-1.03-17.79-1.03-2.21,0-4.51.71-4.51,3.32,0,1.11.79,1.82,3.48,3.4l9.65,5.69c5.69,3.32,7.91,7.67,7.91,13.21,0,14.79-12.42,20.8-25.86,20.8-6.48,0-11.55-.87-15.58-2.06-.71-.24-1.34-.63-1.34-1.34v-.24l1.66-9.73c.16-.87.87-1.58,1.82-1.58h.16c3.24.32,11.63,1.19,15.82,1.19,3.16,0,5.77-1.11,5.77-4.66,0-1.19-.79-2.06-3.08-3.56l-10.2-6.72c-4.59-3.01-6.8-8.15-6.8-13.05C5.14,4.27,16.29,0,28.87,0c6.25,0,14.47,1.03,17.56,1.98.63.24,1.19.55,1.19,1.26v.24Z"/>
    <path class="cls-1" d="M92.53,2.53l-1.66,9.65c-.16.87-1.03,1.58-1.9,1.58h-15.97c-2.85,0-3.95.95-4.51,3.95l-1.03,5.77h19.45c.79,0,1.34.55,1.34,1.34v.24l-1.66,9.33c-.16.87-.95,1.58-1.82,1.58h-19.45l-1.19,6.56c-.08.63-.16,1.11-.16,1.58,0,1.82.95,2.37,3.24,2.37h15.97c.79,0,1.34.55,1.34,1.35v.24l-1.74,9.65c-.16.95-.79,1.42-1.82,1.58-3.08.4-7.91.95-15.58.95-9.25,0-17.71-3.32-17.71-13.68,0-1.27.16-2.61.4-4.03l4.35-24.83C55.2,1.74,64.69,0,75.84,0c7.67,0,12.5.55,15.42.95.87.08,1.26.47,1.26,1.26v.32Z"/>
    <path class="cls-1" d="M148.6,2.37l-9.49,54.25c-.32,1.58-1.9,2.93-3.48,2.93h-9.81c-1.42,0-2.29-.63-2.93-2.13l-11.7-26.49c-.24-.55-.47-.63-.71-.63s-.4.16-.47.71l-4.75,26.97c-.16.87-1.03,1.58-1.9,1.58h-11.86c-.79,0-1.34-.55-1.34-1.34v-.24L99.65,3.72c.32-1.58,1.9-2.93,3.48-2.93h9.65c1.5,0,2.13.95,2.77,2.29l12.02,27.28c.24.55.32.71.55.71s.47-.08.55-.71l4.9-28c.16-.87,1.03-1.58,1.9-1.58h11.86c.79,0,1.27.55,1.27,1.27v.32Z"/>
    <path class="cls-1" d="M193.61,59.55h-13.44c-.79,0-1.34-.71-1.34-1.5l-.24-10.99h-14.08l-4.19,10.99c-.32.79-1.03,1.5-1.82,1.5h-14c-.71,0-1.11-.4-1.11-1.03,0-.16.08-.4.16-.63l19.14-48.4C165.77,1.66,172.02.08,179.53.08s13.21,1.58,13.52,9.41l2.06,48.4v.08c0,.87-.63,1.58-1.5,1.58ZM178.18,14.31c0-.71,0-1.11-.71-1.11s-.79.4-1.03,1.11l-7.43,20.09h9.49l-.32-20.09Z"/>
  </g>
  <path class="cls-1" d="M226.13,2.29c.16-1.03-.47-1.5-1.34-1.5h-12.97c-.87,0-1.66.63-1.82,1.5l-2.47,14.04,17.58-8.24,1.02-5.8Z"/>
  <path class="cls-1" d="M206.41,22.62l-6.23,35.35c-.16.79.32,1.58,1.27,1.58h12.97c1.19,0,1.74-.71,1.9-1.58l7.68-43.59-17.58,8.24Z"/>
</svg>